<svg width="210" height="235" viewBox="0 0 210 235" fill="none" xmlns="http://www.w3.org/2000/svg">
<g clip-path="url(#clip0_2679_4654)">
<path d="M134.068 145.561C133.052 141.832 132.494 139.138 131.588 136.573C127.859 126.029 120.31 118.364 112.167 111.182C109.271 108.628 106.264 106.191 103.417 103.577C102.211 102.469 101.287 101.054 99.7864 99.2359C103.289 98.9543 105.97 98.7706 108.646 98.5134C124.339 97.0011 136.015 89.317 142.389 74.8917C152.24 52.5802 140.289 25.9338 115.993 19.1742C97.9986 14.1657 82.9365 19.7559 71.3276 33.8934C61.4148 45.9737 59.3759 63.8094 68.6581 79.3307C73.9482 88.172 81.6568 94.65 88.9368 101.556C96.4617 108.69 104.452 115.333 111.946 122.49C120.347 130.511 125.049 140.528 126.09 152.094C126.261 153.992 125.545 156.392 124.388 157.923C118.724 165.436 113.893 173.383 110.342 182.108C109.062 185.249 106.662 186.994 103.938 186.829C100.901 186.645 99.6823 184.625 98.7578 182.022C95.6597 173.279 90.1369 165.938 84.9203 158.419C74.3768 143.216 63.5027 128.221 53.4062 112.731C44.9874 99.7931 39.5993 85.5882 38.9503 69.8649C37.8053 42.0918 52.6898 17.4414 77.8423 5.73464C105.817 -7.28856 141.146 2.56303 158.18 28.2604C173.627 51.576 173.517 75.6938 161.712 100.405C154.494 115.51 144.838 129.103 135.611 142.965C135.17 143.632 134.79 144.343 134.068 145.567V145.561Z" fill="url(#paint0_linear_2679_4654)"/>
<path d="M104.789 86.1149C89.0899 86.1026 76.8259 74.0897 76.8565 58.7521C76.8871 43.5736 89.4878 31.0341 104.679 31.0586C120.273 31.0831 132.188 43.0042 132.36 58.3235C132.494 70.3854 120.114 87.0884 104.789 86.1149Z" fill="url(#paint1_linear_2679_4654)"/>
</g>
<path d="M11.4051 234C9.48416 234 7.77665 233.76 6.28259 233.28C4.78852 232.8 3.38784 231.987 2.08053 230.84C1.36018 230.2 1 229.493 1 228.72C1 228.107 1.22678 227.573 1.68033 227.12C2.13389 226.64 2.68082 226.4 3.32114 226.4C3.82805 226.4 4.28161 226.56 4.6818 226.88C5.74899 227.76 6.7895 228.4 7.80333 228.8C8.81716 229.2 10.0178 229.4 11.4051 229.4C12.8992 229.4 14.1798 229.067 15.247 228.4C16.3408 227.733 16.8878 226.907 16.8878 225.92C16.8878 224.72 16.3542 223.787 15.287 223.12C14.2198 222.427 12.5256 221.907 10.2045 221.56C4.36165 220.707 1.44022 217.987 1.44022 213.4C1.44022 211.72 1.88043 210.267 2.76086 209.04C3.64129 207.787 4.84188 206.84 6.36263 206.2C7.88337 205.533 9.57754 205.2 11.4451 205.2C13.1259 205.2 14.7 205.453 16.1674 205.96C17.6615 206.467 18.9021 207.133 19.8893 207.96C20.663 208.573 21.0498 209.28 21.0498 210.08C21.0498 210.693 20.823 211.24 20.3695 211.72C19.9159 212.173 19.3823 212.4 18.7687 212.4C18.3685 212.4 18.0083 212.28 17.6882 212.04C16.9945 211.48 16.0207 210.973 14.7667 210.52C13.5395 210.04 12.4323 209.8 11.4451 209.8C9.76429 209.8 8.45699 210.12 7.5232 210.76C6.61608 211.373 6.16253 212.187 6.16253 213.2C6.16253 214.347 6.62942 215.213 7.56322 215.8C8.52369 216.387 10.0178 216.867 12.0454 217.24C14.3399 217.64 16.1674 218.16 17.5281 218.8C18.9154 219.413 19.956 220.267 20.6496 221.36C21.3433 222.427 21.6901 223.853 21.6901 225.64C21.6901 227.32 21.2099 228.8 20.2494 230.08C19.3156 231.333 18.0617 232.307 16.4876 233C14.9135 233.667 13.2193 234 11.4051 234Z" fill="url(#paint2_linear_2679_4654)"/>
<path d="M31.0819 231.16C31.0819 231.853 30.8418 232.44 30.3616 232.92C29.908 233.373 29.3344 233.6 28.6407 233.6C27.9737 233.6 27.4135 233.373 26.9599 232.92C26.5063 232.44 26.2796 231.853 26.2796 231.16V206.44C26.2796 205.747 26.5063 205.173 26.9599 204.72C27.4401 204.24 28.0271 204 28.7208 204C29.3878 204 29.948 204.24 30.4016 204.72C30.8551 205.173 31.0819 205.747 31.0819 206.44V231.16Z" fill="url(#paint3_linear_2679_4654)"/>
<path d="M41.1881 231.16C41.1881 231.853 40.9613 232.44 40.5078 232.92C40.0542 233.373 39.4806 233.6 38.7869 233.6C38.0933 233.6 37.5197 233.373 37.0661 232.92C36.6125 232.44 36.3858 231.853 36.3858 231.16V214.64C36.3858 213.947 36.6125 213.373 37.0661 212.92C37.5197 212.44 38.0933 212.2 38.7869 212.2C39.4806 212.2 40.0542 212.44 40.5078 212.92C40.9613 213.373 41.1881 213.947 41.1881 214.64V231.16ZM38.7469 209.6C37.8398 209.6 37.1995 209.453 36.826 209.16C36.4525 208.867 36.2657 208.347 36.2657 207.6V206.84C36.2657 206.093 36.4658 205.573 36.866 205.28C37.2662 204.987 37.9065 204.84 38.7869 204.84C39.7207 204.84 40.3744 204.987 40.7479 205.28C41.1214 205.573 41.3082 206.093 41.3082 206.84V207.6C41.3082 208.373 41.1081 208.907 40.7079 209.2C40.3344 209.467 39.6807 209.6 38.7469 209.6Z" fill="url(#paint4_linear_2679_4654)"/>
<path d="M63.4522 204C64.1458 204 64.7194 204.227 65.173 204.68C65.6266 205.133 65.8533 205.72 65.8533 206.44V231.16C65.8533 231.853 65.6266 232.44 65.173 232.92C64.7194 233.373 64.1458 233.6 63.4522 233.6C62.7585 233.6 62.1849 233.373 61.7313 232.92C61.3044 232.467 61.0777 231.893 61.051 231.2C60.384 231.973 59.4769 232.64 58.3296 233.2C57.2091 233.733 56.0219 234 54.7679 234C52.927 234 51.2595 233.533 49.7655 232.6C48.2714 231.64 47.0841 230.32 46.2037 228.64C45.35 226.96 44.9231 225.053 44.9231 222.92C44.9231 220.787 45.35 218.88 46.2037 217.2C47.0575 215.493 48.218 214.173 49.6854 213.24C51.1795 212.28 52.8203 211.8 54.6078 211.8C55.8885 211.8 57.089 212.04 58.2096 212.52C59.3301 212.973 60.2773 213.56 61.051 214.28V206.44C61.051 205.747 61.2778 205.173 61.7313 204.72C62.1849 204.24 62.7585 204 63.4522 204ZM55.3682 229.6C57.1024 229.6 58.5164 228.973 59.6103 227.72C60.7041 226.44 61.2511 224.84 61.2511 222.92C61.2511 221 60.7041 219.4 59.6103 218.12C58.5164 216.84 57.1024 216.2 55.3682 216.2C53.6607 216.2 52.26 216.84 51.1661 218.12C50.0723 219.4 49.5253 221 49.5253 222.92C49.5253 224.84 50.0589 226.44 51.1261 227.72C52.22 228.973 53.634 229.6 55.3682 229.6Z" fill="url(#paint5_linear_2679_4654)"/>
<path d="M90.2672 222.4C90.2405 223.04 89.987 223.56 89.5068 223.96C89.0266 224.36 88.4663 224.56 87.826 224.56H74.6195C74.9397 226.133 75.6733 227.373 76.8206 228.28C77.9678 229.16 79.2618 229.6 80.7025 229.6C81.7963 229.6 82.6501 229.507 83.2637 229.32C83.8774 229.107 84.3576 228.893 84.7044 228.68C85.078 228.44 85.3314 228.28 85.4648 228.2C85.945 227.96 86.3986 227.84 86.8255 227.84C87.3857 227.84 87.866 228.04 88.2662 228.44C88.6664 228.84 88.8665 229.307 88.8665 229.84C88.8665 230.56 88.493 231.213 87.7459 231.8C86.9989 232.413 85.9984 232.933 84.7445 233.36C83.4905 233.787 82.2232 234 80.9426 234C78.7015 234 76.7405 233.533 75.0597 232.6C73.4056 231.667 72.1249 230.387 71.2178 228.76C70.3107 227.107 69.8572 225.253 69.8572 223.2C69.8572 220.907 70.3374 218.893 71.2979 217.16C72.2583 215.427 73.5256 214.107 75.0997 213.2C76.6738 212.267 78.3547 211.8 80.1422 211.8C81.9031 211.8 83.5572 212.28 85.1046 213.24C86.6787 214.2 87.9327 215.493 88.8665 217.12C89.8003 218.747 90.2672 220.507 90.2672 222.4ZM80.1422 216.2C77.0474 216.2 75.2198 217.653 74.6595 220.56H85.1447V220.28C85.0379 219.16 84.491 218.2 83.5039 217.4C82.5167 216.6 81.3961 216.2 80.1422 216.2Z" fill="url(#paint6_linear_2679_4654)"/>
<path d="M113.668 205.6C114.388 205.6 114.975 205.813 115.429 206.24C115.882 206.667 116.109 207.227 116.109 207.92C116.109 208.613 115.882 209.173 115.429 209.6C114.975 210 114.388 210.2 113.668 210.2H107.385V231.16C107.385 231.853 107.131 232.44 106.624 232.92C106.117 233.373 105.49 233.6 104.743 233.6C103.996 233.6 103.383 233.373 102.902 232.92C102.422 232.44 102.182 231.853 102.182 231.16V210.2H95.899C95.1786 210.2 94.5917 209.987 94.1381 209.56C93.6846 209.133 93.4578 208.573 93.4578 207.88C93.4578 207.213 93.6846 206.667 94.1381 206.24C94.6184 205.813 95.2053 205.6 95.899 205.6H113.668Z" fill="url(#paint7_linear_2679_4654)"/>
<path d="M131.155 211.8C133.797 211.8 135.624 212.613 136.638 214.24C137.652 215.84 138.159 218.067 138.159 220.92V231.16C138.159 231.853 137.932 232.44 137.478 232.92C137.025 233.373 136.451 233.6 135.758 233.6C135.064 233.6 134.49 233.373 134.037 232.92C133.583 232.44 133.356 231.853 133.356 231.16V220.92C133.356 219.453 133.063 218.307 132.476 217.48C131.916 216.627 130.915 216.2 129.474 216.2C127.98 216.2 126.807 216.653 125.953 217.56C125.126 218.44 124.712 219.56 124.712 220.92V231.16C124.712 231.853 124.485 232.44 124.032 232.92C123.578 233.373 123.005 233.6 122.311 233.6C121.617 233.6 121.044 233.373 120.59 232.92C120.137 232.44 119.91 231.853 119.91 231.16V206.44C119.91 205.747 120.137 205.173 120.59 204.72C121.044 204.24 121.617 204 122.311 204C123.005 204 123.578 204.24 124.032 204.72C124.485 205.173 124.712 205.747 124.712 206.44V215.28C125.433 214.32 126.34 213.507 127.434 212.84C128.554 212.147 129.795 211.8 131.155 211.8Z" fill="url(#paint8_linear_2679_4654)"/>
<path d="M154.484 211.8C155.285 211.8 155.952 212.027 156.485 212.48C157.046 212.933 157.326 213.467 157.326 214.08C157.326 214.907 157.112 215.533 156.685 215.96C156.258 216.36 155.752 216.56 155.165 216.56C154.764 216.56 154.311 216.467 153.804 216.28C153.724 216.253 153.537 216.2 153.244 216.12C152.977 216.04 152.683 216 152.363 216C151.67 216 151.003 216.213 150.362 216.64C149.722 217.067 149.188 217.72 148.761 218.6C148.361 219.453 148.161 220.48 148.161 221.68V231.16C148.161 231.853 147.934 232.44 147.481 232.92C147.027 233.373 146.454 233.6 145.76 233.6C145.066 233.6 144.493 233.373 144.039 232.92C143.586 232.44 143.359 231.853 143.359 231.16V214.64C143.359 213.947 143.586 213.373 144.039 212.92C144.493 212.44 145.066 212.2 145.76 212.2C146.454 212.2 147.027 212.44 147.481 212.92C147.934 213.373 148.161 213.947 148.161 214.64V215.16C148.775 214.067 149.655 213.24 150.802 212.68C151.95 212.093 153.177 211.8 154.484 211.8Z" fill="url(#paint9_linear_2679_4654)"/>
<path d="M176.599 212.2C177.292 212.2 177.866 212.44 178.32 212.92C178.773 213.373 179 213.947 179 214.64V224.8C179 227.68 178.2 229.933 176.599 231.56C175.025 233.187 172.77 234 169.836 234C166.901 234 164.646 233.187 163.072 231.56C161.498 229.933 160.711 227.68 160.711 224.8V214.64C160.711 213.947 160.938 213.373 161.391 212.92C161.845 212.44 162.419 212.2 163.112 212.2C163.806 212.2 164.38 212.44 164.833 212.92C165.287 213.373 165.513 213.947 165.513 214.64V224.8C165.513 226.427 165.874 227.64 166.594 228.44C167.314 229.213 168.395 229.6 169.836 229.6C171.303 229.6 172.397 229.213 173.117 228.44C173.837 227.64 174.198 226.427 174.198 224.8V214.64C174.198 213.947 174.424 213.373 174.878 212.92C175.332 212.44 175.905 212.2 176.599 212.2Z" fill="url(#paint10_linear_2679_4654)"/>
<defs>
<linearGradient id="paint0_linear_2679_4654" x1="38.8887" y1="93.4197" x2="170.206" y2="93.4197" gradientUnits="userSpaceOnUse">
<stop stop-color="#EA4080"/>
<stop offset="0.0001" stop-color="#EE805F"/>
<stop offset="1" stop-color="#5F54FE"/>
</linearGradient>
<linearGradient id="paint1_linear_2679_4654" x1="76.8564" y1="58.6071" x2="132.361" y2="58.6071" gradientUnits="userSpaceOnUse">
<stop stop-color="#EA4080"/>
<stop offset="0.0001" stop-color="#EE805F"/>
<stop offset="1" stop-color="#5F54FE"/>
</linearGradient>
<linearGradient id="paint2_linear_2679_4654" x1="1" y1="219" x2="179" y2="219" gradientUnits="userSpaceOnUse">
<stop stop-color="#EA4080"/>
<stop offset="0.0001" stop-color="#EE805F"/>
<stop offset="1" stop-color="#5F54FE"/>
</linearGradient>
<linearGradient id="paint3_linear_2679_4654" x1="1" y1="219" x2="179" y2="219" gradientUnits="userSpaceOnUse">
<stop stop-color="#EA4080"/>
<stop offset="0.0001" stop-color="#EE805F"/>
<stop offset="1" stop-color="#5F54FE"/>
</linearGradient>
<linearGradient id="paint4_linear_2679_4654" x1="1" y1="219" x2="179" y2="219" gradientUnits="userSpaceOnUse">
<stop stop-color="#EA4080"/>
<stop offset="0.0001" stop-color="#EE805F"/>
<stop offset="1" stop-color="#5F54FE"/>
</linearGradient>
<linearGradient id="paint5_linear_2679_4654" x1="1" y1="219" x2="179" y2="219" gradientUnits="userSpaceOnUse">
<stop stop-color="#EA4080"/>
<stop offset="0.0001" stop-color="#EE805F"/>
<stop offset="1" stop-color="#5F54FE"/>
</linearGradient>
<linearGradient id="paint6_linear_2679_4654" x1="1" y1="219" x2="179" y2="219" gradientUnits="userSpaceOnUse">
<stop stop-color="#EA4080"/>
<stop offset="0.0001" stop-color="#EE805F"/>
<stop offset="1" stop-color="#5F54FE"/>
</linearGradient>
<linearGradient id="paint7_linear_2679_4654" x1="1" y1="219" x2="179" y2="219" gradientUnits="userSpaceOnUse">
<stop stop-color="#EA4080"/>
<stop offset="0.0001" stop-color="#EE805F"/>
<stop offset="1" stop-color="#5F54FE"/>
</linearGradient>
<linearGradient id="paint8_linear_2679_4654" x1="1" y1="219" x2="179" y2="219" gradientUnits="userSpaceOnUse">
<stop stop-color="#EA4080"/>
<stop offset="0.0001" stop-color="#EE805F"/>
<stop offset="1" stop-color="#5F54FE"/>
</linearGradient>
<linearGradient id="paint9_linear_2679_4654" x1="1" y1="219" x2="179" y2="219" gradientUnits="userSpaceOnUse">
<stop stop-color="#EA4080"/>
<stop offset="0.0001" stop-color="#EE805F"/>
<stop offset="1" stop-color="#5F54FE"/>
</linearGradient>
<linearGradient id="paint10_linear_2679_4654" x1="1" y1="219" x2="179" y2="219" gradientUnits="userSpaceOnUse">
<stop stop-color="#EA4080"/>
<stop offset="0.0001" stop-color="#EE805F"/>
<stop offset="1" stop-color="#5F54FE"/>
</linearGradient>
<clipPath id="clip0_2679_4654">
<rect width="131.316" height="186.837" fill="white" transform="translate(38.8887)"/>
</clipPath>
</defs>
</svg>
