<svg width="210" height="235" viewBox="0 0 210 235" fill="none" xmlns="http://www.w3.org/2000/svg">
<g clip-path="url(#clip0_1181_5761)">
<path d="M134.068 145.561C133.052 141.832 132.494 139.138 131.588 136.573C127.859 126.029 120.31 118.364 112.167 111.182C109.271 108.628 106.264 106.191 103.417 103.577C102.211 102.469 101.287 101.054 99.7864 99.2359C103.289 98.9543 105.97 98.7706 108.646 98.5134C124.339 97.0011 136.015 89.317 142.389 74.8917C152.24 52.5802 140.289 25.9338 115.993 19.1742C97.9986 14.1657 82.9365 19.7559 71.3276 33.8934C61.4148 45.9737 59.3759 63.8094 68.6581 79.3307C73.9482 88.172 81.6568 94.65 88.9368 101.556C96.4617 108.69 104.452 115.333 111.946 122.49C120.347 130.511 125.049 140.528 126.09 152.094C126.261 153.992 125.545 156.392 124.388 157.923C118.724 165.436 113.893 173.383 110.342 182.108C109.062 185.249 106.662 186.994 103.938 186.829C100.901 186.645 99.6823 184.625 98.7578 182.022C95.6597 173.279 90.1369 165.938 84.9203 158.419C74.3768 143.216 63.5027 128.221 53.4062 112.731C44.9874 99.7931 39.5993 85.5882 38.9503 69.8649C37.8053 42.0918 52.6898 17.4414 77.8423 5.73464C105.817 -7.28856 141.146 2.56303 158.18 28.2604C173.627 51.576 173.517 75.6938 161.712 100.405C154.494 115.51 144.838 129.103 135.611 142.965C135.17 143.632 134.79 144.343 134.068 145.567V145.561Z" fill="white"/>
<path d="M104.789 86.1149C89.0899 86.1026 76.8259 74.0897 76.8565 58.7521C76.8871 43.5736 89.4878 31.0341 104.679 31.0586C120.273 31.0831 132.188 43.0042 132.36 58.3235C132.494 70.3854 120.114 87.0884 104.789 86.1149Z" fill="white"/>
</g>
<path d="M22.0457 206.657C22.7541 207.011 23.1628 207.569 23.2718 208.332C23.4081 209.095 23.2173 209.79 22.6996 210.417C22.3454 210.907 21.8822 211.18 21.31 211.234C20.765 211.289 20.2064 211.18 19.6342 210.907C18.9803 210.607 18.2855 210.376 17.5498 210.212C16.8413 210.049 16.092 209.967 15.3018 209.967C13.8304 209.967 12.5089 210.199 11.3372 210.662C10.1928 211.125 9.21188 211.793 8.39444 212.665C7.577 213.509 6.95029 214.518 6.51433 215.689C6.10561 216.861 5.90125 218.155 5.90125 219.572C5.90125 221.234 6.13286 222.678 6.59607 223.904C7.08654 225.131 7.75411 226.152 8.5988 226.97C9.44349 227.787 10.438 228.4 11.5825 228.809C12.7269 229.191 13.9667 229.381 15.3018 229.381C16.0375 229.381 16.7732 229.313 17.5089 229.177C18.2446 229.041 18.953 228.795 19.6342 228.441C20.2064 228.169 20.765 228.073 21.31 228.155C21.8822 228.237 22.359 228.523 22.7405 229.013C23.2855 229.695 23.4762 230.403 23.3127 231.139C23.1765 231.847 22.7678 232.365 22.0866 232.692C21.3781 233.046 20.6424 233.346 19.8795 233.591C19.1438 233.809 18.3944 233.973 17.6315 234.082C16.8686 234.218 16.092 234.286 15.3018 234.286C13.3399 234.286 11.4735 233.973 9.70234 233.346C7.95847 232.719 6.39171 231.793 5.00206 230.567C3.63966 229.34 2.56337 227.815 1.77318 225.989C0.982986 224.136 0.587891 221.997 0.587891 219.572C0.587891 217.474 0.942114 215.539 1.65056 213.768C2.38626 211.997 3.40806 210.471 4.71596 209.191C6.05111 207.883 7.61787 206.874 9.41624 206.166C11.2146 205.43 13.1765 205.062 15.3018 205.062C16.5007 205.062 17.6724 205.199 18.8168 205.471C19.9612 205.744 21.0375 206.139 22.0457 206.657Z" fill="white"/>
<path d="M48.4471 222.964C48.4471 225.199 47.943 227.174 46.9348 228.891C45.9539 230.58 44.6187 231.902 42.9293 232.855C41.2672 233.809 39.4007 234.286 37.3299 234.286C35.259 234.286 33.3789 233.809 31.6895 232.855C30.0274 231.902 28.6923 230.58 27.6841 228.891C26.7032 227.174 26.2127 225.199 26.2127 222.964C26.2127 220.73 26.7032 218.768 27.6841 217.079C28.6923 215.362 30.0274 214.027 31.6895 213.073C33.3789 212.092 35.259 211.602 37.3299 211.602C39.4007 211.602 41.2672 212.092 42.9293 213.073C44.6187 214.027 45.9539 215.362 46.9348 217.079C47.943 218.768 48.4471 220.73 48.4471 222.964ZM43.5424 222.964C43.5424 221.575 43.2563 220.376 42.6841 219.368C42.1392 218.332 41.3898 217.528 40.4362 216.956C39.5097 216.384 38.4743 216.098 37.3299 216.098C36.1855 216.098 35.1364 216.384 34.1827 216.956C33.2563 217.528 32.507 218.332 31.9348 219.368C31.3898 220.376 31.1173 221.575 31.1173 222.964C31.1173 224.327 31.3898 225.526 31.9348 226.561C32.507 227.569 33.2563 228.36 34.1827 228.932C35.1364 229.504 36.1855 229.79 37.3299 229.79C38.4743 229.79 39.5097 229.504 40.4362 228.932C41.3898 228.36 42.1392 227.569 42.6841 226.561C43.2563 225.526 43.5424 224.327 43.5424 222.964Z" fill="white"/>
<path d="M64.2246 211.602C66.4044 211.602 68.0121 212.133 69.0475 213.196C70.0829 214.231 70.7641 215.58 71.0911 217.242L70.3963 216.875L70.7232 216.221C71.0502 215.594 71.5543 214.926 72.2355 214.218C72.9167 213.482 73.7341 212.869 74.6878 212.379C75.6688 211.861 76.7587 211.602 77.9576 211.602C79.9194 211.602 81.4045 212.024 82.4126 212.869C83.4481 213.714 84.1565 214.845 84.538 216.261C84.9194 217.651 85.1102 219.204 85.1102 220.921V231.384C85.1102 232.093 84.8786 232.692 84.4154 233.182C83.9521 233.646 83.3663 233.877 82.6579 233.877C81.9494 233.877 81.3636 233.646 80.9004 233.182C80.4372 232.692 80.2055 232.093 80.2055 231.384V220.921C80.2055 220.022 80.0966 219.218 79.8786 218.509C79.6606 217.774 79.2655 217.188 78.6933 216.752C78.1211 216.316 77.3036 216.098 76.241 216.098C75.2055 216.098 74.32 216.316 73.5843 216.752C72.8486 217.188 72.29 217.774 71.9085 218.509C71.5543 219.218 71.3772 220.022 71.3772 220.921V231.384C71.3772 232.093 71.1456 232.692 70.6824 233.182C70.2192 233.646 69.6333 233.877 68.9249 233.877C68.2164 233.877 67.6306 233.646 67.1674 233.182C66.7042 232.692 66.4726 232.093 66.4726 231.384V220.921C66.4726 220.022 66.3636 219.218 66.1456 218.509C65.9276 217.774 65.5325 217.188 64.9603 216.752C64.3881 216.316 63.5707 216.098 62.508 216.098C61.4726 216.098 60.587 216.316 59.8513 216.752C59.1156 217.188 58.557 217.774 58.1756 218.509C57.8213 219.218 57.6442 220.022 57.6442 220.921V231.384C57.6442 232.093 57.4126 232.692 56.9494 233.182C56.4862 233.646 55.9003 233.877 55.1919 233.877C54.4834 233.877 53.8976 233.646 53.4344 233.182C52.9712 232.692 52.7396 232.093 52.7396 231.384V214.504C52.7396 213.795 52.9712 213.21 53.4344 212.746C53.8976 212.256 54.4834 212.011 55.1919 212.011C55.9003 212.011 56.4862 212.256 56.9494 212.746C57.4126 213.21 57.6442 213.795 57.6442 214.504V216.261L57.0311 216.139C57.2764 215.676 57.617 215.185 58.0529 214.667C58.4889 214.122 59.0202 213.618 59.6469 213.155C60.2736 212.692 60.9685 212.324 61.7314 212.052C62.4944 211.752 63.3254 211.602 64.2246 211.602Z" fill="white"/>
<path d="M100.718 234.286C98.4021 234.286 96.3857 233.809 94.6691 232.855C92.9797 231.875 91.6718 230.553 90.7454 228.891C89.8462 227.229 89.3966 225.349 89.3966 223.251C89.3966 220.798 89.8871 218.714 90.868 216.997C91.8762 215.253 93.1841 213.918 94.7917 212.992C96.3994 212.065 98.1024 211.602 99.9007 211.602C101.29 211.602 102.598 211.888 103.824 212.46C105.078 213.033 106.181 213.823 107.135 214.831C108.089 215.812 108.838 216.956 109.383 218.264C109.955 219.572 110.241 220.962 110.241 222.433C110.214 223.087 109.955 223.618 109.465 224.027C108.974 224.436 108.402 224.64 107.748 224.64H92.1351L90.9089 220.553H105.909L105.01 221.37V220.267C104.955 219.477 104.669 218.768 104.151 218.142C103.661 217.515 103.034 217.024 102.271 216.67C101.536 216.289 100.745 216.098 99.9007 216.098C99.0833 216.098 98.3203 216.207 97.6119 216.425C96.9034 216.643 96.2904 217.011 95.7727 217.528C95.2549 218.046 94.8462 218.741 94.5465 219.613C94.2468 220.485 94.0969 221.588 94.0969 222.924C94.0969 224.395 94.3966 225.648 94.9961 226.684C95.6228 227.692 96.413 228.469 97.3667 229.013C98.3476 229.531 99.383 229.79 100.473 229.79C101.481 229.79 102.285 229.708 102.884 229.545C103.484 229.381 103.961 229.191 104.315 228.973C104.696 228.727 105.037 228.523 105.337 228.36C105.827 228.114 106.29 227.992 106.726 227.992C107.326 227.992 107.816 228.196 108.198 228.605C108.606 229.013 108.811 229.49 108.811 230.035C108.811 230.771 108.429 231.439 107.666 232.038C106.958 232.637 105.963 233.169 104.683 233.632C103.402 234.068 102.081 234.286 100.718 234.286Z" fill="white"/>
<path d="M132.667 234.593C131.904 234.593 131.277 234.361 130.786 233.898C130.296 233.408 130.051 232.808 130.051 232.1V208.394H135.364V232.1C135.364 232.808 135.105 233.408 134.588 233.898C134.097 234.361 133.457 234.593 132.667 234.593ZM123.634 210.683C122.925 210.683 122.326 210.465 121.835 210.029C121.372 209.593 121.141 209.021 121.141 208.312C121.141 207.604 121.372 207.045 121.835 206.636C122.326 206.201 122.925 205.983 123.634 205.983H141.781C142.489 205.983 143.075 206.201 143.538 206.636C144.029 207.072 144.274 207.645 144.274 208.353C144.274 209.062 144.029 209.634 143.538 210.07C143.075 210.478 142.489 210.683 141.781 210.683H123.634Z" fill="white"/>
<path d="M159.641 212.318C161.603 212.318 163.088 212.74 164.096 213.585C165.132 214.429 165.84 215.56 166.221 216.977C166.603 218.367 166.794 219.92 166.794 221.637V232.1C166.794 232.808 166.562 233.408 166.099 233.898C165.636 234.361 165.05 234.593 164.341 234.593C163.633 234.593 163.047 234.361 162.584 233.898C162.121 233.408 161.889 232.808 161.889 232.1V221.637C161.889 220.737 161.78 219.934 161.562 219.225C161.344 218.489 160.949 217.904 160.377 217.468C159.805 217.032 158.987 216.814 157.924 216.814C156.889 216.814 156.003 217.032 155.268 217.468C154.532 217.904 153.973 218.489 153.592 219.225C153.238 219.934 153.061 220.737 153.061 221.637V232.1C153.061 232.808 152.829 233.408 152.366 233.898C151.903 234.361 151.317 234.593 150.608 234.593C149.9 234.593 149.314 234.361 148.851 233.898C148.388 233.408 148.156 232.808 148.156 232.1V206.841C148.156 206.132 148.388 205.547 148.851 205.083C149.314 204.593 149.9 204.348 150.608 204.348C151.317 204.348 151.903 204.593 152.366 205.083C152.829 205.547 153.061 206.132 153.061 206.841V216.977L152.448 216.854C152.693 216.391 153.033 215.901 153.469 215.383C153.905 214.838 154.437 214.334 155.063 213.871C155.69 213.408 156.385 213.04 157.148 212.767C157.911 212.468 158.742 212.318 159.641 212.318Z" fill="white"/>
<path d="M174.557 234.593C173.848 234.593 173.263 234.361 172.799 233.898C172.336 233.408 172.104 232.808 172.104 232.1V215.22C172.104 214.511 172.336 213.925 172.799 213.462C173.263 212.972 173.848 212.726 174.557 212.726C175.265 212.726 175.851 212.972 176.314 213.462C176.777 213.925 177.009 214.511 177.009 215.22V219.062L176.723 216.323C177.023 215.669 177.404 215.097 177.867 214.607C178.358 214.089 178.903 213.666 179.502 213.339C180.102 212.985 180.742 212.726 181.423 212.563C182.104 212.399 182.786 212.318 183.467 212.318C184.284 212.318 184.966 212.549 185.51 213.013C186.083 213.476 186.369 214.021 186.369 214.647C186.369 215.547 186.137 216.201 185.674 216.609C185.211 216.991 184.707 217.181 184.162 217.181C183.644 217.181 183.167 217.086 182.731 216.895C182.322 216.705 181.846 216.609 181.301 216.609C180.81 216.609 180.306 216.732 179.788 216.977C179.298 217.195 178.835 217.549 178.399 218.04C177.99 218.53 177.649 219.143 177.377 219.879C177.132 220.587 177.009 221.432 177.009 222.413V232.1C177.009 232.808 176.777 233.408 176.314 233.898C175.851 234.361 175.265 234.593 174.557 234.593Z" fill="white"/>
<path d="M206.052 212.726C206.761 212.726 207.347 212.972 207.81 213.462C208.273 213.925 208.505 214.511 208.505 215.22V225.601C208.505 228.489 207.701 230.778 206.093 232.468C204.486 234.157 202.17 235.002 199.145 235.002C196.121 235.002 193.805 234.157 192.197 232.468C190.617 230.778 189.826 228.489 189.826 225.601V215.22C189.826 214.511 190.058 213.925 190.521 213.462C190.984 212.972 191.57 212.726 192.279 212.726C192.987 212.726 193.573 212.972 194.036 213.462C194.499 213.925 194.731 214.511 194.731 215.22V225.601C194.731 227.263 195.099 228.503 195.834 229.32C196.57 230.111 197.674 230.506 199.145 230.506C200.644 230.506 201.761 230.111 202.497 229.32C203.232 228.503 203.6 227.263 203.6 225.601V215.22C203.6 214.511 203.832 213.925 204.295 213.462C204.758 212.972 205.344 212.726 206.052 212.726Z" fill="white"/>
<defs>
<clipPath id="clip0_1181_5761">
<rect width="131.316" height="186.837" fill="white" transform="translate(38.8887)"/>
</clipPath>
</defs>
</svg>
