<?xml version="1.0" encoding="UTF-8"?>
<svg version="1.1" xmlns="http://www.w3.org/2000/svg" width="180" height="180">
<path d="M0 0 C1.10590988 -0.00852997 2.21181976 -0.01705994 3.35124207 -0.02584839 C4.54982849 -0.02494202 5.74841492 -0.02403564 6.98332214 -0.02310181 C8.25721298 -0.02981903 9.53110382 -0.03653625 10.84359741 -0.04345703 C14.32722575 -0.06107258 17.81075572 -0.06581054 21.2944243 -0.0670886 C23.47450858 -0.06851338 25.65456811 -0.07278917 27.83464622 -0.07808304 C35.45062717 -0.09656921 43.06653826 -0.1047555 50.68254089 -0.10317993 C57.76490262 -0.10197918 64.84695929 -0.12307184 71.92924386 -0.15466726 C78.02373707 -0.18088026 84.11813094 -0.19154512 90.21268004 -0.19026911 C93.84648388 -0.18976091 97.48001648 -0.19536465 101.11376381 -0.21662521 C105.17075334 -0.23971548 109.22706595 -0.23045617 113.28410339 -0.21841431 C115.07287399 -0.23527283 115.07287399 -0.23527283 116.89778137 -0.25247192 C127.08949783 -0.17574864 134.08616485 2.46022954 141.53874207 9.40805054 C147.33525782 15.43237696 150.56521706 21.37729001 150.5952301 29.93962097 C150.60802505 31.59848579 150.60802505 31.59848579 150.62107849 33.29086304 C150.61971893 35.08874268 150.61971893 35.08874268 150.61833191 36.92294312 C150.62504913 38.19683395 150.63176636 39.47072479 150.63868713 40.78321838 C150.65630268 44.26684672 150.66104065 47.7503767 150.66231871 51.23404527 C150.66374349 53.41412955 150.66801928 55.59418908 150.67331314 57.7742672 C150.69179931 65.39024814 150.6999856 73.00615923 150.69841003 80.62216187 C150.69720929 87.7045236 150.71830194 94.78658026 150.74989736 101.86886483 C150.77611036 107.96335804 150.78677522 114.05775192 150.78549922 120.15230101 C150.78499102 123.78610485 150.79059475 127.41963745 150.81185532 131.05338478 C150.83494558 135.11037432 150.82568627 139.16668692 150.81364441 143.22372437 C150.82488342 144.4162381 150.83612244 145.60875183 150.84770203 146.83740234 C150.77097874 157.0291188 148.13500056 164.02578582 141.18717957 171.47836304 C135.16285314 177.2748788 129.21794009 180.50483804 120.65560913 180.53485107 C118.99674431 180.54764603 118.99674431 180.54764603 117.30436707 180.56069946 C116.10578064 180.55979309 114.90719421 180.55888672 113.67228699 180.55795288 C112.39839615 180.5646701 111.12450531 180.57138733 109.81201172 180.57830811 C106.32838339 180.59592365 102.84485341 180.60066162 99.36118484 180.60193968 C97.18110055 180.60336446 95.00104102 180.60764025 92.82096291 180.61293411 C85.20498196 180.63142028 77.58907087 180.63960657 69.97306824 180.63803101 C62.89070651 180.63683026 55.80864984 180.65792292 48.72636527 180.68951833 C42.63187206 180.71573133 36.53747819 180.72639619 30.44292909 180.72512019 C26.80912525 180.72461199 23.17559265 180.73021572 19.54184532 180.75147629 C15.48485579 180.77456655 11.42854318 180.76530724 7.37150574 180.75326538 C6.178992 180.76450439 4.98647827 180.77574341 3.75782776 180.787323 C-6.4338887 180.71059971 -13.43055571 178.07462153 -20.88313293 171.12680054 C-26.67964869 165.10247412 -29.90960793 159.15756106 -29.93962097 150.5952301 C-29.94815094 149.48932022 -29.95668091 148.38341034 -29.96546936 147.24398804 C-29.96456299 146.04540161 -29.96365662 144.84681519 -29.96272278 143.61190796 C-29.96944 142.33801712 -29.97615723 141.06412628 -29.983078 139.75163269 C-30.00069355 136.26800436 -30.00543152 132.78447438 -30.00670958 129.30080581 C-30.00813435 127.12072153 -30.01241014 124.94066199 -30.01770401 122.76058388 C-30.03619018 115.14460293 -30.04437647 107.52869185 -30.0428009 99.91268921 C-30.04160015 92.83032748 -30.06269281 85.74827081 -30.09428823 78.66598624 C-30.12050123 72.57149304 -30.13116609 66.47709916 -30.12989008 60.38255006 C-30.12938189 56.74874622 -30.13498562 53.11521363 -30.15624619 49.48146629 C-30.17933645 45.42447676 -30.17007714 41.36816415 -30.15803528 37.31112671 C-30.16927429 36.11861298 -30.18051331 34.92609924 -30.1920929 33.69744873 C-30.11536961 23.50573227 -27.47939143 16.50906526 -20.53157043 9.05648804 C-14.50724401 3.25997228 -8.56233096 0.03001304 0 0 Z " fill="#1A5FDB" transform="translate(29.672195434570313,-0.267425537109375)"/>
<path d="M0 0 C6.39375 -0.0825 12.7875 -0.165 19.375 -0.25 C21.37224121 -0.28641602 23.36948242 -0.32283203 25.42724609 -0.36035156 C43.0604134 -0.54857009 43.0604134 -0.54857009 50 4 C55.03890828 9.16180848 55.34851148 12.99580286 55.28125 20.0078125 C54.90571585 24.00307863 53.79087014 26.13370094 51 29 C48.25 30.375 48.25 30.375 46 31 C46 31.66 46 32.32 46 33 C46.886875 33.20625 47.77375 33.4125 48.6875 33.625 C53.30806999 35.54297245 55.73914994 38.47829987 58 43 C58.72692854 49.75005071 58.80549706 55.68639291 54.69140625 61.3125 C48.38091751 67.60841487 41.03874185 69.11447032 32.45471191 69.11315918 C31.63821167 69.10804321 30.82171143 69.10292725 29.98046875 69.09765625 C29.21883423 69.09664917 28.45719971 69.09564209 27.67248535 69.09460449 C24.84414145 69.08939679 22.01581911 69.07543561 19.1875 69.0625 C12.855625 69.041875 6.52375 69.02125 0 69 C0 46.23 0 23.46 0 0 Z " fill="#FAFBFD" transform="translate(32,41)"/>
<path d="M0 0 C16.5 0 33 0 50 0 C50 4.29 50 8.58 50 13 C38.78 13 27.56 13 16 13 C16 18.61 16 24.22 16 30 C25.57 30 35.14 30 45 30 C45 33.96 45 37.92 45 42 C35.43 42 25.86 42 16 42 C16 50.91 16 59.82 16 69 C10.72 69 5.44 69 0 69 C0 46.23 0 23.46 0 0 Z " fill="#F9FAFD" transform="translate(101,41)"/>
<path d="M0 0 C3.39668836 -0.1081174 6.78992439 -0.18737188 10.1875 -0.25 C11.14720703 -0.28351563 12.10691406 -0.31703125 13.09570312 -0.3515625 C17.48159765 -0.41226692 20.24720524 -0.41520605 24.14453125 1.734375 C26.77742132 4.94927234 26.59338507 6.8777679 26.36328125 10.875 C25.89100889 13.63753941 25.09677087 15.13620367 23 17 C20.11734851 17.96088383 18.32337729 18.11670941 15.33203125 18.09765625 C14.43935547 18.09443359 13.54667969 18.09121094 12.62695312 18.08789062 C11.23379883 18.07532227 11.23379883 18.07532227 9.8125 18.0625 C8.87212891 18.05798828 7.93175781 18.05347656 6.96289062 18.04882812 C4.64189992 18.03704645 2.32094193 18.01911114 0 18 C0 12.06 0 6.12 0 0 Z " fill="#1B60DB" transform="translate(48,80)"/>
<path d="M0 0 C2.89640118 -0.08120751 5.79050912 -0.14059421 8.6875 -0.1875 C9.50412109 -0.21263672 10.32074219 -0.23777344 11.16210938 -0.26367188 C15.94015822 -0.32170486 19.13423093 -0.14903871 23 3 C24.44430855 5.88861709 24.37688506 7.79647701 24 11 C21.95429526 13.86984345 20.38040027 15.74805389 16.80761719 16.40014648 C14.25027965 16.49206194 11.74333625 16.43638468 9.1875 16.3125 C8.30384766 16.28994141 7.42019531 16.26738281 6.50976562 16.24414062 C4.3391109 16.18547428 2.1693331 16.09579979 0 16 C0 10.72 0 5.44 0 0 Z " fill="#2264DC" transform="translate(48,53)"/>
<path d="M0 0 C3.0432531 1.9874306 4.62073803 3.32041127 5.4375 6.9375 C5.65601459 10.54299071 5.1569295 12.69267972 3.5 15.9375 C0.61168462 18.32036019 -1.26115216 19.0313122 -4.9609375 19.24609375 C-7.81260022 18.90192756 -9.87604696 17.79440515 -11.9296875 15.796875 C-14.13754549 12.0902521 -13.78438296 8.1162752 -13 4 C-10.21712985 -1.08176289 -5.23636963 -1.05286436 0 0 Z " fill="#F4F6FD" transform="translate(60,131)"/>
<path d="M0 0 C3.4375 1.6875 3.4375 1.6875 6 4 C6.875 6.75 6.875 6.75 7 9 C5.02 9 3.04 9 1 9 C0.67 8.01 0.34 7.02 0 6 C-3.41656024 5.83322718 -3.41656024 5.83322718 -7 6 C-9.18429262 7.77709032 -9.18429262 7.77709032 -9.265625 10.05859375 C-9.26046875 10.84363281 -9.2553125 11.62867188 -9.25 12.4375 C-9.25515625 13.21996094 -9.2603125 14.00242188 -9.265625 14.80859375 C-9.13176831 17.29044107 -9.13176831 17.29044107 -7 20 C-3.41642759 20.25015873 -3.41642759 20.25015873 0 20 C0.33 19.01 0.66 18.02 1 17 C2.98 17 4.96 17 7 17 C6.16188269 20.77152787 5.56528894 22.57258641 2.4375 24.9375 C-2.04183495 26.32202171 -5.5188909 26.43329592 -10 25 C-13.7333221 22.18096086 -14.71565876 20.71779709 -15.47265625 16.14453125 C-15.70943685 11.25713682 -15.81333338 7.23149311 -12.625 3.3125 C-8.59262367 -0.23983153 -5.2756099 -0.70471969 0 0 Z " fill="#EFF2FC" transform="translate(37,124)"/>
<path d="M0 0 C2.3515625 0.48828125 2.3515625 0.48828125 4.9765625 2.67578125 C6.3515625 5.48828125 6.3515625 5.48828125 6.3515625 10.48828125 C2.0615625 10.48828125 -2.2284375 10.48828125 -6.6484375 10.48828125 C-5.9884375 11.80828125 -5.3284375 13.12828125 -4.6484375 14.48828125 C-1.3484375 14.15828125 1.9515625 13.82828125 5.3515625 13.48828125 C5.0215625 14.80828125 4.6915625 16.12828125 4.3515625 17.48828125 C0.61705135 19.35553682 -3.59176297 19.16875569 -7.6484375 18.48828125 C-10.85539654 15.35767838 -11.52986895 13.33308217 -12.1484375 8.92578125 C-11.0235842 1.19241481 -7.27295269 -0.37544741 0 0 Z " fill="#F5F7FD" transform="translate(120.6484375,130.51171875)"/>
<path d="M0 0 C2.33333333 0 4.66666667 0 7 0 C7.928125 -0.03480469 7.928125 -0.03480469 8.875 -0.0703125 C9.57625 -0.08835938 10.2775 -0.10640625 11 -0.125 C11.70125 -0.14820313 12.4025 -0.17140625 13.125 -0.1953125 C15 0 15 0 17 2 C17.14507695 4.74485593 17.18652423 7.38480543 17.125 10.125 C17.11597656 10.87910156 17.10695313 11.63320312 17.09765625 12.41015625 C17.0740687 14.27357254 17.03819719 16.13682593 17 18 C15.35 18 13.7 18 12 18 C11.67 13.71 11.34 9.42 11 5 C9.35 5.33 7.7 5.66 6 6 C5.67 9.96 5.34 13.92 5 18 C3.35 18 1.7 18 0 18 C0 12.06 0 6.12 0 0 Z " fill="#F3F6FC" transform="translate(89,131)"/>
<path d="M0 0 C2.33333333 0 4.66666667 0 7 0 C7.928125 -0.03480469 7.928125 -0.03480469 8.875 -0.0703125 C9.57625 -0.08835938 10.2775 -0.10640625 11 -0.125 C11.70125 -0.14820313 12.4025 -0.17140625 13.125 -0.1953125 C15 0 15 0 17 2 C17.14507695 4.74485593 17.18652423 7.38480543 17.125 10.125 C17.11597656 10.87910156 17.10695313 11.63320312 17.09765625 12.41015625 C17.0740687 14.27357254 17.03819719 16.13682593 17 18 C15.35 18 13.7 18 12 18 C11.67 13.71 11.34 9.42 11 5 C9.35 5.33 7.7 5.66 6 6 C5.67 9.96 5.34 13.92 5 18 C3.35 18 1.7 18 0 18 C0 12.06 0 6.12 0 0 Z " fill="#F4F6FC" transform="translate(68,131)"/>
<path d="M0 0 C2.5625 1.8125 2.5625 1.8125 4 4 C4 4.99 4 5.98 4 7 C1.625 7.1875 1.625 7.1875 -1 7 C-1.66 6.01 -2.32 5.02 -3 4 C-5.75641416 4.49756092 -5.75641416 4.49756092 -8 6 C-7.71269945 8.33944736 -7.38063221 10.6739143 -7 13 C-5.68 13.33 -4.36 13.66 -3 14 C-2.34 13.01 -1.68 12.02 -1 11 C1.625 10.8125 1.625 10.8125 4 11 C3.43353627 14.28548964 2.60930515 15.90785443 0 18 C-4.13571067 18.84542152 -7.84094093 18.62193414 -11.5625 16.625 C-13.81981342 12.5029494 -13.72358826 8.58526458 -13 4 C-10.21639147 -1.08311123 -5.24102125 -0.97127183 0 0 Z " fill="#F1F4FC" transform="translate(143,131)"/>
<path d="M0 0 C1.65 0 3.3 0 5 0 C5 1.65 5 3.3 5 5 C6.32 5 7.64 5 9 5 C9 6.32 9 7.64 9 9 C7.68 9 6.36 9 5 9 C5 12.3 5 15.6 5 19 C6.32 19 7.64 19 9 19 C9 20.32 9 21.64 9 23 C5.625 23.1875 5.625 23.1875 2 23 C-0.28062828 19.57905758 -0.21925007 18.31812778 -0.125 14.3125 C-0.10695312 13.31863281 -0.08890625 12.32476562 -0.0703125 11.30078125 C-0.04710937 10.54152344 -0.02390625 9.78226563 0 9 C-0.99 9 -1.98 9 -3 9 C-3 7.68 -3 6.36 -3 5 C-2.01 5 -1.02 5 0 5 C0 3.35 0 1.7 0 0 Z " fill="#F2F5FC" transform="translate(151,126)"/>
<path d="M0 0 C2.375 0.75 2.375 0.75 3.375 1.75 C3.73397436 8.21153846 3.73397436 8.21153846 1.375 11.75 C-3.375 11 -3.375 11 -5.625 8.75 C-5.96161952 5.5857765 -6.12443411 3.56486618 -4.4375 0.8125 C-2.625 -0.25 -2.625 -0.25 0 0 Z " fill="#306CDE" transform="translate(56.625,134.25)"/>
<path d="M0 0 C4.29 0 8.58 0 13 0 C12.67 1.32 12.34 2.64 12 4 C11.278125 3.979375 10.55625 3.95875 9.8125 3.9375 C7.08074862 3.99820559 4.65743909 4.39258535 2 5 C1.34 3.35 0.68 1.7 0 0 Z " fill="#477BE1" transform="translate(114,141)"/>
<path d="M0 0 C1.65 0.33 3.3 0.66 5 1 C5.33 1.99 5.66 2.98 6 4 C3.36 4 0.72 4 -2 4 C-1.34 2.68 -0.68 1.36 0 0 Z " fill="#3C70DE" transform="translate(116,134)"/>
</svg>
